<?xml version="1.0" encoding="UTF-8"?>
<svg id="Layer_2" data-name="Layer 2" xmlns="http://www.w3.org/2000/svg" viewBox="0 0 153.62 153.62">
  <defs>
    <style>
      .cls-1 {
        opacity: .98;
      }

      .cls-1, .cls-2, .cls-3 {
        fill: #100f15;
      }

      .cls-2 {
        fill-rule: evenodd;
      }
    </style>
  </defs>
  <g id="Layer_3" data-name="Layer 3">
    <path class="cls-3" d="M118,95.94c-9.83-1.68-19.21,4.3-22.01,13.61-.03.1-.06.21-.09.31-.02.08-.04.15-.06.23-.02.07-.04.14-.06.22-.04.16-.08.32-.12.48,0,.03-.02.07-.02.1-.02.09-.04.19-.06.28h0c-.03.13-.05.25-.07.38-.02.12-.05.24-.07.37v.02c-.02.11-.04.23-.06.34,0,.03,0,.06-.01.08-.02.11-.03.21-.04.31,0,.03,0,.06-.01.09-.01.1-.03.2-.04.3,0,.01,0,.03,0,.04-.03.24-.05.49-.07.73,0,.1-.01.2-.02.29,0,.1-.01.19-.01.29,0,.08,0,.16,0,.24,0,0,0,0,0,.01,0,.14,0,.27,0,.4,0,.01,0,.03,0,.04,0,.12,0,.24,0,.36,0,.24.01.47.02.69,0,.04,0,.09,0,.13,0,.02,0,.03,0,.05,0,.08,0,.16.02.24,0,.07,0,.15.02.22,0,.06,0,.11.01.17.04.42.09.81.14,1.19.02.11.03.21.05.32.06.36.13.71.2,1.02.02.08.04.16.05.23.04.15.07.3.11.44.09.34.19.67.29,1.01,2.15,6.73,7.89,12.05,15.33,13.32,7.5,1.28,14.74-1.89,18.99-7.61.64-.86,1.21-1.77,1.71-2.74.04-.08.08-.15.11-.23.07-.15.15-.3.22-.45.13-.27.25-.56.37-.85.04-.09.07-.18.11-.28,0-.01,0-.02.01-.03.03-.08.07-.17.1-.26.04-.12.09-.23.13-.35.03-.09.06-.18.09-.28.03-.09.06-.18.09-.28.02-.05.03-.1.05-.15.06-.18.11-.37.16-.56.01-.04.02-.09.04-.13.03-.12.06-.24.09-.36.02-.07.04-.15.05-.22,0-.03.02-.07.02-.1.02-.1.05-.21.07-.31,0-.01,0-.02,0-.03.02-.1.04-.2.06-.31,0-.03.01-.06.02-.09.02-.11.04-.23.06-.34h0c.02-.13.04-.25.06-.37.01-.06.02-.13.03-.19,0-.04.01-.09.02-.13,0-.03,0-.06.01-.08,0-.02,0-.04,0-.06.01-.1.03-.21.04-.31,0,0,0-.02,0-.03,0-.06.01-.13.02-.2,0-.06.01-.12.02-.18.02-.23.04-.46.05-.68,0-.1,0-.19.01-.28.09-2.07-.16-4.09-.69-6.01-.03-.1-.05-.19-.08-.28-.03-.09-.05-.17-.08-.26,0-.02-.01-.04-.02-.06-.02-.05-.03-.1-.05-.15h0c-2.15-6.72-7.88-12.05-15.33-13.32ZM96.74,112.14c.48-2.83,1.6-5.44,3.25-7.69,2.86,2.11,5.73,4.23,8.59,6.34-.66.91-1.12,1.97-1.33,3.15s-.11,2.45.25,3.57l-10.17,3.25c-.88-2.75-1.09-5.69-.59-8.62ZM115.67,109.57c3.12.53,5.21,3.49,4.68,6.61-.53,3.12-3.49,5.21-6.61,4.68s-5.21-3.49-4.68-6.61c.53-3.12,3.49-5.21,6.61-4.68ZM132.66,118.29c-.49,2.88-1.64,5.53-3.33,7.8-2.86-2.11-5.73-4.22-8.59-6.34.7-.93,1.2-2.04,1.41-3.26s.11-2.45-.25-3.57l10.17-3.25c.88,2.75,1.1,5.69.6,8.62ZM114.14,118.52c1.82.31,3.55-.92,3.87-2.74s-.92-3.56-2.74-3.87c-1.82-.31-3.56.92-3.87,2.74-.31,1.82.92,3.56,2.74,3.87Z"/>
    <path class="cls-3" d="M100.16,101.48c-7.59,8.03-7.23,20.69.8,28.27,8.03,7.59,20.69,7.23,28.27-.8,7.59-8.03,7.23-20.69-.8-28.27-8.03-7.59-20.69-7.23-28.27.8ZM132.23,120.23c-.79,2.78-2.24,5.34-4.28,7.5s-4.43,3.7-7.1,4.65c-1.78.64-3.68,1-5.63,1.05-4.86.14-9.49-1.63-13.03-4.97-3.54-3.34-5.56-7.86-5.7-12.73-.05-1.9.18-3.75.69-5.53.79-2.78,2.24-5.34,4.28-7.5,1.97-2.09,4.35-3.64,6.97-4.6,1.82-.67,3.76-1.04,5.76-1.1,4.86-.14,9.49,1.63,13.03,4.97,3.54,3.34,5.56,7.86,5.7,12.73.05,1.89-.18,3.75-.69,5.52Z"/>
    <g>
      <path class="cls-3" d="M48.43,103.6c.87,0,1.58.71,1.58,1.58v20.07c0,.87-.71,1.58-1.58,1.58h-20.07c-.87,0-1.58-.71-1.58-1.58v-20.07c0-.87.71-1.58,1.58-1.58h20.07M48.43,99.37h-20.07c-3.21,0-5.81,2.6-5.81,5.81v20.07c0,3.21,2.6,5.81,5.81,5.81h20.07c3.21,0,5.81-2.6,5.81-5.81v-20.07c0-3.21-2.6-5.81-5.81-5.81h0Z"/>
      <path class="cls-1" d="M37.88,109.92c-.4.33-.6.83-.6,1.51v.36s4.05,0,4.05,0v2.31h-4.05s0,3.62,0,3.62h-2.98v-6.24c0-1.44.45-2.55,1.34-3.34.89-.79,2.15-1.18,3.77-1.18.61,0,1.19.06,1.73.18.54.12,1,.29,1.38.51l-.87,2.29c-.58-.34-1.25-.51-2-.51s-1.35.17-1.75.5Z"/>
      <rect class="cls-3" x="30.74" y="121.34" width="15.32" height="3.28" rx="1.64" ry="1.64"/>
    </g>
    <g>
      <g>
        <path class="cls-3" d="M116.28,24.75c.87-.1,2.48.18,3.35.4,6.26,1.57,11.76,6.92,13.83,12.74.49,1.38,1.15,3.63,1.21,5.07s-1.83,2.18-2.79,1.02c-.4-.48-.48-1.82-.62-2.48-1.15-5.34-4.23-9.45-9.14-12.13-2.02-1.1-3.44-1.42-5.74-1.62-1.93-.17-1.9-2.78-.1-3Z"/>
        <g>
          <path class="cls-3" d="M115.32,18.79c3.73.09,7.48.88,10.67,2.77.5.29,1.55.93,1.83,1.39.53.89-.05,2.09-1.11,2.23-.89.12-1.32-.42-1.99-.84-4.87-3.03-12.33-3.37-17.63-1.08-1.06.46-2.4,1.46-3.26.04-.94-1.54.89-2.31,2.05-2.82,2.48-1.1,5.27-1.61,7.98-1.7.47-.02.99-.02,1.46,0Z"/>
          <path class="cls-3" d="M95.66,30.56v-.46c.15-.47.43-.88.7-1.3.63-.97,1.37-1.88,2.18-2.72.44-.46,1.5-1.55,2.08-1.7,1.23-.32,2.26.7,1.91,1.88-.17.56-1.16,1.28-1.61,1.74-.55.56-1.08,1.17-1.54,1.8-.35.48-.85,1.5-1.32,1.79-.83.5-1.85.2-2.27-.62l-.14-.42Z"/>
        </g>
      </g>
      <g>
        <g>
          <path class="cls-3" d="M115.28,30.55c3.27-.07,6.2,1.07,8.62,3.11.75.63,2.61,2.51,2.68,3.46.12,1.49-1.78,2.24-2.77,1.08-.48-.56-.81-1.19-1.38-1.75-5.11-5-13.23-3.23-16.01,3.16-1.87,4.29-1.07,8.97.76,13.1.18.4.45.82.59,1.22.61,1.83-1.87,2.86-2.83,1.25-1.21-2.02-2.2-5.34-2.51-7.65-1.11-8.15,3.52-16.77,12.86-16.97Z"/>
          <path class="cls-3" d="M110.19,25.45c1.31-.02,2.05,1.41,1.24,2.42-.36.45-1.58.89-2.14,1.19-6.88,3.6-9.99,10.23-9.52,17.63.02.31.1.64.12.95.1,2.02-2.77,2.44-3.12.24-.46-2.86-.03-6.58.84-9.36,1.59-5.07,4.87-9.1,9.62-11.76.62-.34,2.34-1.29,2.97-1.3Z"/>
        </g>
        <g>
          <path class="cls-3" d="M114.98,36.65c4.77-.35,7.03,2.4,8,6.52.67,2.86.57,4.36,2.61,6.76.49.57,1.86,1.7,2.1,2.24.64,1.47-1.16,2.76-2.52,1.67-1.77-1.41-3.77-4.03-4.4-6.17-.64-2.13-.71-5.78-2.52-7.27-1.48-1.22-4.75-1.04-5.78.67-2.25,3.73-.17,9.16,1.48,12.75.28.61.67,1.25.92,1.85.77,1.85-1.74,3-2.75,1.43-.25-.39-.5-.98-.71-1.41-.97-2.02-1.93-4.37-2.49-6.53-1.29-4.93-.52-12.03,6.07-12.52Z"/>
          <path class="cls-3" d="M115.71,43.09c.55-.02,1.18.33,1.42.81s.18,1.23.24,1.79c.29,2.71,1.34,5.32,2.95,7.53.38.52,1.22,1.34,1.29,1.95.14,1.15-.97,2-2.11,1.61-.55-.19-1.13-1.04-1.48-1.5-1.84-2.42-3.06-5.14-3.57-8.11-.12-.72-.4-2.41-.18-3.06.19-.57.82-1.01,1.44-1.03Z"/>
        </g>
        <path class="cls-3" d="M127.07,41.49c.51-.03,1.09.23,1.37.64.31.46.23.77.3,1.27.18,1.25.6,2.4,1.53,3.32.33.32.53.34.9.53,1.62.83.72,3.21-1.15,2.78-1.74-.4-3.3-2.61-3.86-4.14-.47-1.26-1.28-4.27.92-4.4Z"/>
      </g>
    </g>
    <g>
      <path id="Ellipse_6_copie_2" data-name="Ellipse 6 copie 2" class="cls-2" d="M38.42,27.86c4.15,0,7.51,4.51,7.51,10.06,0,5.56-3.36,10.06-7.51,10.06s-7.51-4.51-7.51-10.06c0-.51.03-1.02.09-1.52,1.57,1.42,3.61.05,4.39-1.28.81-1.38,1.36-4.4,0-6.44.86-.46,2.04-.82,3.03-.82Z"/>
      <path id="Forme_1" data-name="Forme 1" class="cls-2" d="M25.44,30.08s3.16-2.06,6.85-1.61c3.43.42,7.46,2.08,9.52,3.58,3.05,2.23,6.57,4.42,9.94,4.82,4.93.57-.42-6.18-.42-6.18,0,0-1.21-3.19-1.39-3.4s-6.43-4.45-6.43-4.45c0,0-5.31-.32-6.12-.31s-4.39.77-4.67.86-6.61,3.4-6.61,3.4l-.67,3.27Z"/>
      <path id="o_copie" data-name="o copie" class="cls-2" d="M38.43,58.03c3.77,0,7.14-.85,10.12-2.55,2.98-1.7,5.31-4.04,7.01-7.03,1.69-2.99,2.54-6.37,2.54-10.16,0-3.79-.85-7.17-2.54-10.16-1.69-2.99-4.03-5.32-7.01-6.99-2.98-1.68-6.35-2.51-10.12-2.51-3.77,0-7.15.84-10.15,2.51-3,1.68-5.35,4.01-7.04,6.99-1.69,2.99-2.54,6.37-2.54,10.16,0,3.79.85,7.17,2.54,10.16s4.04,5.33,7.04,7.03c3,1.7,6.39,2.55,10.15,2.55h0ZM38.43,51.92c-2.43,0-4.61-.57-6.54-1.71-1.93-1.14-3.46-2.74-4.58-4.81-1.12-2.06-1.68-4.43-1.68-7.1,0-2.67.56-5.04,1.68-7.1,1.12-2.06,2.65-3.65,4.58-4.77s4.11-1.68,6.54-1.68,4.61.56,6.54,1.68c1.93,1.12,3.44,2.71,4.54,4.77,1.1,2.06,1.64,4.43,1.64,7.1,0,2.67-.55,5.04-1.64,7.1s-2.61,3.67-4.54,4.81c-1.93,1.14-4.11,1.71-6.54,1.71h0Z"/>
    </g>
    <circle class="cls-3" cx="76.81" cy="76.81" r="3.8"/>
    <path class="cls-2" d="M3.8,0c0,2.1-1.7,3.8-3.8,3.8V0h3.8Z"/>
    <path class="cls-2" d="M3.8,153.62H0v-3.8c2.1,0,3.8,1.7,3.8,3.8Z"/>
    <path class="cls-2" d="M153.62,149.82v3.8h-3.8c0-2.1,1.7-3.8,3.8-3.8Z"/>
    <path class="cls-2" d="M153.62,0v3.8c-2.1,0-3.8-1.7-3.8-3.8h3.8Z"/>
  </g>
</svg>
